# Blender v2.78 (sub 0) OBJ File: 'courseB.obj'
# www.blender.org
mtllib courseBv3.mtl
o Plane
v 0.226562 0.000000 0.025000
v 0.218750 -0.007812 0.025000
v 0.226562 -0.007812 0.025000
v -0.218750 0.000000 0.000000
v -0.218750 -0.007812 0.025000
v -0.093750 -0.007812 0.025000
v -0.085938 -0.024022 0.032847
v -0.093750 -0.015625 0.025000
v -0.093750 -0.023438 0.000000
v -0.070312 -0.008914 0.004157
v -0.078125 0.000000 0.000000
v -0.078125 -0.008865 0.029052
v -0.093750 -0.234375 0.000000
v -0.085938 -0.085938 0.048354
v 0.093750 -0.023438 -0.000000
v 0.085938 -0.085938 0.048354
v 0.093750 -0.234375 -0.000000
v -0.085938 -0.242188 0.000000
v -0.093750 -0.242188 0.000000
v -0.070312 -0.226562 0.048354
v -0.078125 -0.218750 0.048354
v -0.078125 -0.226562 0.048354
v 0.070312 -0.226562 0.048354
v 0.015625 -0.218750 0.025000
v -0.039062 -0.242188 0.000000
v -0.085938 -0.234375 0.048354
v 0.242188 -0.015625 -0.000000
v 0.234375 -0.023438 -0.000000
v 0.242188 -0.023438 -0.000000
v 0.226562 0.218750 0.025000
v 0.218750 0.000000 -0.000000
v 0.070312 -0.068897 0.021715
v 0.070312 -0.078125 0.025000
v 0.078125 -0.085938 0.048354
v 0.078125 0.000000 -0.000000
v 0.093750 -0.007812 0.025000
v -0.218750 0.226562 0.025000
v -0.226562 0.218750 0.025000
v -0.218750 0.218750 0.000000
v -0.234375 0.234375 0.025000
v -0.242188 -0.015625 0.000000
v -0.234375 -0.015625 0.025000
v -0.226562 0.000000 0.025000
v -0.226562 -0.007812 0.025000
v -0.234375 -0.023438 0.000000
v -0.242188 -0.023438 0.000000
v 0.093750 -0.015625 0.025000
v 0.085938 -0.008865 0.029052
v 0.085938 -0.016444 0.030949
v 0.085938 -0.024022 0.032847
v 0.234375 -0.015625 0.025000
v -0.003906 -0.171875 0.025000
v -0.070312 -0.078125 0.025000
v 0.003906 -0.175781 0.010000
v 0.007812 -0.183594 0.025000
v 0.007812 -0.175781 0.025000
v 0.070312 0.007812 -0.000000
v 0.070312 -0.001416 0.001962
v 0.242188 0.234375 -0.000000
v -0.078125 -0.085938 0.048354
v -0.070312 -0.218750 0.025000
v 0.234375 0.242188 -0.000000
v 0.234375 0.234375 0.025000
v 0.218750 0.226562 0.025000
v 0.218750 0.218750 -0.000000
v 0.085938 -0.242188 -0.000000
v 0.093750 -0.242188 -0.000000
v -0.039062 -0.250000 0.000000
v -0.023438 -0.218750 0.025000
v -0.003906 -0.187500 0.025000
v -0.250000 0.250000 0.000000
v -0.242188 0.234375 0.000000
v -0.242188 0.242188 0.000000
v 0.226562 0.226562 0.025000
v 0.003906 -0.171875 0.025000
v -0.007812 -0.175781 0.025000
v -0.003906 -0.175781 0.010000
v -0.078125 0.007812 0.000000
v -0.070312 0.007812 0.000000
v -0.070312 -0.001416 0.001962
v 0.085938 -0.234375 0.048354
v -0.085938 -0.008865 0.029052
v -0.085938 -0.016444 0.030949
v 0.078125 -0.218750 0.048354
v 0.078125 -0.226562 0.048354
v 0.070312 -0.008914 0.004157
v 0.078125 -0.008865 0.029052
v -0.234375 0.242188 0.000000
v -0.003906 -0.183594 0.010000
v 0.003906 -0.187500 0.025000
v 0.007812 -0.187500 0.025000
v 0.003906 -0.183594 0.010000
v -0.007812 -0.183594 0.025000
v -0.007812 -0.187500 0.025000
v -0.085938 -0.077072 0.046128
v 0.070312 -0.218750 0.025000
v -0.226562 0.226562 0.025000
v -0.023438 -0.171875 0.025000
v -0.007812 -0.171875 0.025000
v 0.015625 -0.171875 0.025000
v 0.007812 -0.171875 0.025000
v 0.078125 0.007812 -0.000000
v -0.070312 -0.068897 0.021715
v 0.242188 0.242188 -0.000000
v 0.171875 -0.250000 -0.000000
v 0.109375 -0.242188 -0.000000
v 0.250000 -0.250000 -0.000000
v -0.250000 -0.250000 0.000000
v 0.250000 0.250000 -0.000000
vt 2.5016 0.6029
vt 2.4822 0.5841
vt 2.5016 0.5841
vt 0.5126 2.1373
vt 0.5774 2.1370
vt 0.5773 2.3549
vt 0.9279 1.3489
vt 0.9083 1.3762
vt 0.8454 1.3614
vt 2.3431 2.5359
vt 2.3366 2.5655
vt 2.2822 2.5151
vt 0.5850 2.0286
vt 0.5129 1.6595
vt 0.6835 1.9041
vt 2.4029 1.6770
vt 2.2822 1.5726
vt 2.4029 1.3012
vt 0.0341 0.8456
vt 0.0535 0.8644
vt 0.0341 0.8644
vt 1.7674 0.0556
vt 1.7480 0.0744
vt 1.7480 0.0556
vt 0.8557 2.1674
vt 0.8557 2.4125
vt 0.7948 2.3183
vt 0.5126 1.6329
vt 0.5264 1.5554
vt 0.6328 1.6443
vt 0.5940 0.0556
vt 0.5747 0.0744
vt 0.5747 0.0556
vt 2.0151 2.0296
vt 2.1709 2.3916
vt 2.1086 2.4086
vt 1.0513 2.3459
vt 1.0545 2.3269
vt 1.1104 2.3004
vt 0.2556 2.2755
vt 0.1908 2.2486
vt 0.2556 2.0304
vt 0.0748 2.0047
vt 0.0795 2.0308
vt 0.0148 2.0285
vt 0.9279 2.0472
vt 0.7948 1.6188
vt 0.8584 1.6070
vt 1.4003 0.5841
vt 1.3809 0.6029
vt 1.3809 0.5841
vt 0.5747 1.2029
vt 0.5940 1.2217
vt 0.5747 1.2217
vt 2.1731 0.5653
vt 2.1538 0.5812
vt 2.1538 0.5627
vt 1.2152 1.3719
vt 1.2399 1.3489
vt 1.2399 1.4301
vt 2.5142 1.5108
vt 2.5789 1.2768
vt 2.5789 1.5126
vt 0.1984 1.4616
vt 0.3819 1.6871
vt 0.0342 1.6871
vt 0.3962 2.4034
vt 0.3609 2.4238
vt 0.3584 2.4100
vt 0.4013 1.8775
vt 0.3819 1.8963
vt 0.3819 1.8739
vt 2.2822 1.7853
vt 2.3469 2.2330
vt 2.2822 2.2307
vt 2.5189 1.8022
vt 2.4582 2.0358
vt 2.4582 1.7853
vt 1.2425 1.7715
vt 1.2152 1.7715
vt 1.2289 1.7099
vt 2.0134 2.0031
vt 2.0774 2.0127
vt 0.0535 0.4130
vt 0.0341 0.4318
vt 0.0341 0.4130
vt 0.0341 0.7327
vt 0.0148 0.7327
vt 0.1501 1.3489
vt 0.2467 1.3489
vt 0.1984 1.4240
vt 1.2503 1.2405
vt 1.2117 1.2217
vt 1.2310 1.2217
vt 2.5016 1.1479
vt 2.5209 1.1667
vt 2.4822 1.1479
vt 0.3609 2.3839
vt 0.3584 2.3968
vt 0.3946 2.2073
vt 0.3812 2.2096
vt 0.3813 2.1723
vt 1.7480 0.5812
vt 1.7287 0.5443
vt 1.7480 0.3938
vt 2.1345 0.3938
vt 2.1538 0.3938
vt 2.1538 0.5443
vt 0.0795 2.4206
vt 0.0148 2.4182
vt 1.9021 2.3282
vt 1.3616 2.3282
vt 1.3809 1.9897
vt 0.0342 1.8963
vt 0.0148 1.8775
vt 0.0342 1.8739
vt 0.0342 1.8557
vt 2.1709 1.2846
vt 2.1069 1.2750
vt 0.7954 1.5922
vt 1.0392 2.1921
vt 1.1039 1.3746
vt 1.1039 2.1918
vt 1.7287 0.0368
vt 2.1538 0.0368
vt 1.7287 0.5812
vt 1.7094 0.5653
vt 1.7287 0.5627
vt 2.1345 0.0744
vt 2.1151 0.0556
vt 2.1345 0.0556
vt 1.0426 2.4951
vt 1.0392 2.4650
vt 1.1019 2.4502
vt 1.0392 1.3749
vt 1.0448 1.3489
vt 0.3670 2.1723
vt 0.2274 1.4334
vt 0.2177 1.4240
vt 0.2274 1.4240
vt 1.2426 2.0626
vt 1.2287 2.1002
vt 1.2287 2.0629
vt 0.1887 1.4334
vt 0.1887 1.4240
vt 1.2483 2.3536
vt 1.2290 2.3724
vt 1.2290 2.3536
vt 0.1964 2.0047
vt 0.1908 2.0307
vt 0.5877 2.3688
vt 0.5877 2.3824
vt 0.5126 2.3824
vt 0.2391 2.5357
vt 0.1908 2.4438
vt 0.2471 2.3839
vt 0.2471 2.5511
vt 2.2822 1.3081
vt 1.4180 2.6038
vt 1.3616 2.5439
vt 1.4180 2.4366
vt 0.3935 2.0047
vt 0.3935 2.0639
vt 0.3669 2.0106
vt 0.7948 2.4136
vt 0.7948 2.2502
vt 0.7948 2.1685
vt 0.6835 1.3603
vt 0.5633 1.3489
vt 2.2870 2.2569
vt 2.5189 2.1472
vt 2.5189 2.3838
vt 2.4582 2.1501
vt 2.4582 2.4007
vt 1.1104 2.4609
vt 1.2312 1.8798
vt 1.2312 1.9542
vt 1.2152 1.9469
vt 1.4003 1.1479
vt 1.3809 1.1479
vt 1.3809 1.1291
vt 0.8643 2.0591
vt 1.2152 1.5959
vt 1.2419 1.5385
vt 1.2419 1.6015
vt 2.1731 0.5841
vt 2.5142 1.2750
vt 0.0342 1.3489
vt 0.1501 1.4616
vt 0.1887 1.4616
vt 0.3819 1.3489
vt 0.2467 1.4616
vt 0.2177 1.4616
vt 0.2274 1.4616
vt 0.3986 2.4171
vt 0.4013 1.8963
vt 2.3469 1.7876
vt 2.3419 2.3970
vt 2.3431 2.4161
vt 2.2889 2.3652
vt 2.5189 2.0388
vt 1.2117 0.0556
vt 1.2310 0.0556
vt 1.2310 0.0744
vt 2.5016 1.1291
vt 2.3981 1.2750
vt 0.0148 0.2249
vt 0.0341 0.3753
vt 0.1887 1.4522
vt 0.2274 1.4522
vt 0.5747 0.4130
vt 0.0148 0.0368
vt 0.0148 1.2405
vt 1.2503 0.0368
vt 0.5747 0.8644
vt 1.2310 1.2029
vt 1.3616 0.5653
vt 1.3616 1.1667
vt 1.7094 0.5841
vt 2.5209 0.5653
vt 0.3986 2.3905
vt 1.7287 0.3938
vt 1.7287 0.4154
vt 2.1345 0.5812
vt 1.3809 1.9709
vt 1.3809 1.6135
vt 1.3616 1.6135
vt 1.3616 1.2750
vt 1.3809 1.6323
vt 1.9021 1.2750
vt 1.3616 1.9897
vt 0.0148 1.8963
vt 0.0342 1.7096
vt 0.3819 1.7096
vt 0.3819 1.8557
vt 0.8501 2.4386
vt 0.3669 2.2096
vt 1.2152 2.0979
vt 1.2426 2.0999
vt 1.2290 2.2453
vt 1.2358 2.2086
vt 1.2426 2.2453
vt 1.2483 2.3724
vn 0.0000 0.0000 1.0000
vn 0.0000 0.9545 0.2983
vn -0.7983 -0.5748 0.1796
vn 0.6833 0.6983 0.2131
vn -0.9872 0.0000 0.1595
vn 0.9872 0.0000 0.1595
vn 0.0000 0.9483 0.3172
vn 0.0000 -0.9872 0.1595
vn -0.9545 0.0000 0.2983
vn -0.9275 0.1254 0.3522
vn 0.6905 -0.6905 0.2158
vn 0.5807 0.1977 0.7898
vn 0.7983 -0.5748 0.1796
vn 0.0000 -0.9545 0.2983
vn -0.9677 0.0000 0.2520
vn 0.2036 0.2036 0.9577
vn 0.9545 0.0000 0.2983
vn 0.9483 0.0000 0.3173
vn 0.6905 0.6904 0.2158
vn -0.6905 -0.6905 0.2158
vn 0.0000 -0.9677 0.2520
vn 0.6954 -0.6954 0.1811
vn -0.0001 0.2429 0.9701
vn -0.0001 0.2429 0.9700
vn -0.0003 0.2432 0.9700
vn 0.0000 0.2429 0.9700
vn 0.0001 0.2429 0.9700
vn -0.2036 0.2036 0.9577
vn 0.0000 0.2810 0.9597
vn 0.0000 0.2809 0.9597
vn -0.5807 0.1977 0.7898
vn -0.6833 0.6983 0.2131
vn -0.6904 0.6905 0.2158
vn 0.9677 0.0000 0.2520
vn 0.0000 0.9677 0.2520
vn -0.6954 -0.6954 0.1811
vn -0.6905 0.6905 0.2158
vn 0.0000 0.9565 0.2919
vn -0.0197 0.9577 0.2869
vn -0.5807 0.1973 0.7898
vn -0.1867 0.2760 0.9428
vn -0.9709 0.0583 0.2322
vn -0.9710 0.0581 0.2320
vn 0.9710 0.0581 0.2320
vn -0.7026 -0.7025 0.1135
vn 0.6881 0.6882 0.2302
vn 0.0000 0.9484 0.3172
vn 0.6904 -0.6904 0.2158
vn -0.9483 0.0000 0.3173
vn -0.9505 0.0873 0.2981
vn -0.9409 0.0823 0.3286
vn 0.0197 0.9577 0.2869
vn 0.6905 0.6905 0.2158
vn -0.6904 -0.6905 0.2158
vn 0.4604 0.0000 0.8877
vn 0.5807 0.1978 0.7897
vn 0.9275 0.1254 0.3522
vn 0.9505 0.0873 0.2981
vn 0.9409 0.0823 0.3286
vn 0.7026 -0.7025 0.1135
vn 0.0000 0.2435 0.9699
vn -0.0006 0.2430 0.9700
vn 0.0000 0.2428 0.9701
vn 0.0001 0.2429 0.9701
vn 0.0000 0.3354 0.9421
vn 0.0000 0.2080 0.9781
vn -0.4604 0.0000 0.8877
vn -0.6881 0.6882 0.2302
vn 0.1867 0.2760 0.9428
vn -0.6954 0.6954 0.1811
vn 0.6954 0.6954 0.1811
usemtl greenBase
s 1
f 1/1/1 2/2/1 3/3/1
f 4/4/2 5/5/2 6/6/2
f 7/7/3 8/8/3 9/9/3
f 10/10/4 11/11/4 12/12/4
f 9/13/5 13/14/5 14/15/5
f 15/16/6 16/17/6 17/18/6
f 18/19/1 13/20/1 19/21/1
f 20/22/1 21/23/1 22/24/1
f 20/25/7 23/26/7 24/27/7
f 18/28/8 25/29/8 26/30/8
f 27/31/1 28/32/1 29/33/1
f 30/34/9 31/35/9 1/36/9
f 32/37/10 33/38/10 34/39/10
f 35/40/2 36/41/2 31/42/2
f 37/43/11 38/44/11 39/45/11
f 40/46/9 41/47/9 42/48/9
f 5/49/1 43/50/1 44/51/1
f 45/52/1 41/53/1 46/54/1
f 47/55/12 48/56/12 49/57/12
f 47/58/13 50/59/13 15/60/13
f 15/61/14 51/62/14 47/63/14
f 52/64/1 33/65/1 53/66/1
f 54/67/15 55/68/15 56/69/15
f 35/70/16 57/71/16 58/72/16
f 59/73/17 51/74/17 27/75/17
f 60/76/18 61/77/18 53/78/18
f 59/79/19 62/80/19 63/81/19
f 30/34/20 64/82/20 65/83/20
f 17/84/1 66/85/1 67/86/1
f 66/85/1 25/87/1 68/88/1
f 69/89/1 24/90/1 70/91/1
f 71/92/1 72/93/1 73/94/1
f 74/95/1 63/96/1 64/97/1
f 52/98/21 54/67/21 75/99/21
f 52/100/22 76/101/22 77/102/22
f 12/103/23 7/104/24 60/105/25
f 34/106/26 16/107/26 50/108/27
f 39/45/17 43/109/17 4/110/17
f 39/111/1 4/112/1 78/113/1
f 79/114/28 11/115/28 80/116/28
f 58/72/29 80/116/29 10/117/30
f 39/118/14 64/82/14 37/119/14
f 45/120/14 8/8/14 42/48/14
f 62/121/2 40/122/2 63/123/2
f 26/124/1 81/125/1 20/22/1
f 82/126/31 8/127/31 83/128/31
f 84/129/1 23/130/1 85/131/1
f 35/132/32 86/133/32 87/134/32
f 88/135/33 72/136/33 40/122/33
f 76/101/34 89/137/34 77/102/34
f 55/138/1 90/139/1 91/140/1
f 89/141/35 90/142/35 92/143/35
f 70/91/1 93/144/1 94/145/1
f 54/146/1 89/147/1 92/148/1
f 56/69/36 75/99/36 54/67/36
f 1/149/37 31/42/37 2/150/37
f 82/151/38 12/152/38 11/153/38
f 11/153/2 4/4/2 6/6/2
f 6/6/39 82/151/39 11/153/39
f 7/104/40 83/128/31 8/127/31
f 10/117/41 80/116/41 11/115/41
f 95/154/42 7/155/43 9/156/43
f 9/156/43 14/157/42 95/154/42
f 26/30/5 14/15/5 13/14/5
f 81/158/6 17/18/6 16/17/6
f 15/159/44 50/160/44 16/161/44
f 18/28/45 26/30/45 13/14/45
f 20/162/46 61/163/46 21/164/46
f 96/165/7 24/27/7 23/26/7
f 69/166/47 61/167/7 20/25/7
f 20/25/7 24/27/7 69/166/47
f 81/168/8 26/30/8 25/29/8
f 25/29/8 66/169/8 81/168/8
f 27/75/48 51/74/48 28/170/48
f 30/34/9 65/83/9 31/35/9
f 84/171/49 34/172/49 96/173/49
f 87/134/50 86/133/50 32/37/50
f 33/174/49 96/173/49 34/172/49
f 87/134/51 32/37/51 34/39/51
f 35/132/38 87/134/38 48/175/38
f 36/41/2 2/150/2 31/42/2
f 35/176/52 48/177/52 36/178/52
f 37/179/1 97/180/1 38/181/1
f 40/46/9 72/182/9 41/47/9
f 5/183/53 4/184/53 43/185/53
f 45/120/54 42/48/54 41/47/54
f 47/55/55 36/186/55 48/56/55
f 47/55/12 49/57/12 50/108/56
f 15/61/14 28/187/14 51/62/14
f 53/66/1 61/188/1 98/189/1
f 98/189/1 99/190/1 53/66/1
f 61/188/1 69/89/1 98/189/1
f 96/191/1 33/65/1 100/192/1
f 100/192/1 24/90/1 96/191/1
f 52/64/1 75/193/1 33/65/1
f 100/192/1 33/65/1 101/194/1
f 99/190/1 52/64/1 53/66/1
f 101/194/1 33/65/1 75/193/1
f 54/67/15 92/195/15 55/68/15
f 35/70/1 102/196/1 57/71/1
f 59/73/17 63/197/17 51/74/17
f 53/198/57 103/199/57 60/200/57
f 10/10/58 12/12/58 103/199/58
f 60/76/18 21/201/18 61/77/18
f 103/199/59 12/12/59 60/200/59
f 59/202/1 104/203/1 62/204/1
f 30/205/1 74/95/1 64/97/1
f 17/18/60 81/158/60 66/206/60
f 68/88/1 105/207/1 66/85/1
f 67/86/1 66/85/1 105/207/1
f 105/207/1 106/208/1 67/86/1
f 93/144/1 76/209/1 98/189/1
f 99/190/1 98/189/1 76/209/1
f 24/90/1 100/192/1 91/140/1
f 56/210/1 55/138/1 100/192/1
f 100/192/1 101/194/1 56/210/1
f 93/144/1 98/189/1 94/145/1
f 90/139/1 70/91/1 24/90/1
f 94/145/1 98/189/1 69/89/1
f 100/192/1 55/138/1 91/140/1
f 70/91/1 94/145/1 69/89/1
f 24/90/1 91/140/1 90/139/1
f 15/211/1 17/84/1 105/207/1
f 106/208/1 105/207/1 17/84/1
f 17/84/1 67/86/1 106/208/1
f 29/33/1 28/32/1 107/212/1
f 15/211/1 105/207/1 28/32/1
f 108/213/1 68/88/1 19/21/1
f 25/87/1 18/19/1 68/88/1
f 28/32/1 105/207/1 107/212/1
f 104/203/1 59/202/1 109/214/1
f 27/31/1 29/33/1 107/212/1
f 68/88/1 18/19/1 19/21/1
f 13/20/1 9/215/1 45/52/1
f 108/213/1 19/21/1 13/20/1
f 27/31/1 107/212/1 109/214/1
f 88/216/1 62/204/1 109/214/1
f 59/202/1 27/31/1 109/214/1
f 108/213/1 13/20/1 45/52/1
f 46/54/1 41/53/1 108/213/1
f 108/213/1 45/52/1 46/54/1
f 104/203/1 109/214/1 62/204/1
f 73/94/1 88/216/1 71/92/1
f 71/92/1 108/213/1 41/53/1
f 41/53/1 72/93/1 71/92/1
f 88/216/1 109/214/1 71/92/1
f 44/51/1 43/50/1 42/217/1
f 97/180/1 37/179/1 40/218/1
f 43/50/1 38/181/1 42/217/1
f 37/179/1 64/97/1 40/218/1
f 6/219/1 5/49/1 8/127/1
f 8/127/1 5/49/1 42/217/1
f 36/186/1 47/55/1 2/2/1
f 3/3/1 2/2/1 51/220/1
f 42/217/1 5/49/1 44/51/1
f 42/217/1 38/181/1 40/218/1
f 2/2/1 47/55/1 51/220/1
f 74/95/1 30/205/1 63/96/1
f 1/1/1 3/3/1 51/220/1
f 40/218/1 38/181/1 97/180/1
f 30/205/1 1/1/1 63/96/1
f 40/218/1 64/97/1 63/96/1
f 1/1/1 51/220/1 63/96/1
f 52/98/21 77/221/21 54/67/21
f 52/64/1 99/190/1 76/209/1
f 14/222/61 60/105/25 95/223/62
f 12/103/23 82/126/63 83/128/24
f 12/103/23 83/128/24 7/104/24
f 95/223/62 60/105/25 7/104/24
f 49/57/27 48/56/63 87/224/64
f 87/224/64 34/106/26 50/108/27
f 50/108/27 49/57/27 87/224/64
f 39/45/17 38/44/17 43/109/17
f 78/113/1 79/225/1 39/111/1
f 102/226/1 35/227/1 31/228/1
f 79/225/1 57/229/1 65/230/1
f 102/226/1 31/228/1 65/230/1
f 65/230/1 39/111/1 79/225/1
f 4/112/1 11/231/1 78/113/1
f 57/229/1 102/226/1 65/230/1
f 79/114/1 78/232/1 11/115/1
f 103/233/65 53/66/65 33/65/65
f 32/234/30 86/235/30 10/117/30
f 103/233/65 33/65/65 32/234/65
f 79/114/66 80/116/66 58/72/66
f 10/117/30 103/233/30 32/234/30
f 58/72/66 57/71/66 79/114/66
f 10/117/30 86/235/30 58/72/29
f 39/118/14 65/83/14 64/82/14
f 45/120/14 9/9/14 8/8/14
f 62/121/2 88/135/2 40/122/2
f 22/24/1 21/23/1 26/124/1
f 60/105/1 14/222/1 21/23/1
f 81/125/1 16/107/1 84/129/1
f 34/106/1 84/129/1 16/107/1
f 21/23/1 14/222/1 26/124/1
f 85/131/1 23/130/1 81/125/1
f 20/22/1 22/24/1 26/124/1
f 81/125/1 84/129/1 85/131/1
f 23/130/1 20/22/1 81/125/1
f 82/126/67 6/219/67 8/127/67
f 84/236/68 96/165/68 23/26/68
f 35/70/69 58/72/69 86/235/69
f 88/216/1 73/94/1 72/93/1
f 76/101/34 93/237/34 89/137/34
f 55/238/70 92/143/70 90/142/70
f 89/141/35 70/239/35 90/142/35
f 70/240/71 89/241/71 93/242/71
f 54/146/1 77/243/1 89/147/1
f 56/210/1 101/194/1 75/193/1
